<svg width="20" height="20" viewBox="0 0 20 20" fill="none" xmlns="http://www.w3.org/2000/svg">
<path d="M16.667 12.4998V15.8332C16.667 16.0632 16.5745 16.2707 16.4228 16.4223C16.2712 16.574 16.0637 16.6665 15.8337 16.6665H4.16699C3.93699 16.6665 3.72949 16.574 3.57783 16.4223C3.42616 16.2707 3.33366 16.0632 3.33366 15.8332V12.4998C3.33366 12.0398 2.96033 11.6665 2.50033 11.6665C2.04033 11.6665 1.66699 12.0398 1.66699 12.4998V15.8332C1.66699 16.5232 1.94783 17.1498 2.39949 17.6007C2.85116 18.0515 3.47699 18.3332 4.16699 18.3332H15.8337C16.5237 18.3332 17.1503 18.0523 17.6012 17.6007C18.052 17.149 18.3337 16.5232 18.3337 15.8332V12.4998C18.3337 12.0398 17.9603 11.6665 17.5003 11.6665C17.0403 11.6665 16.667 12.0398 16.667 12.4998ZM10.8337 10.4882V2.49984C10.8337 2.03984 10.4603 1.6665 10.0003 1.6665C9.54033 1.6665 9.16699 2.03984 9.16699 2.49984V10.4882L6.42283 7.744C6.09699 7.41817 5.56949 7.41817 5.24449 7.744C4.91949 8.06984 4.91866 8.59734 5.24449 8.92234L9.41116 13.089C9.48783 13.1657 9.57949 13.2273 9.68116 13.2698C9.78283 13.3123 9.89199 13.3332 10.0003 13.3332C10.2137 13.3332 10.427 13.2515 10.5895 13.089L14.7562 8.92234C15.082 8.5965 15.082 8.069 14.7562 7.744C14.4303 7.419 13.9028 7.41817 13.5778 7.744L10.8337 10.4882Z" fill="white"/>
</svg>
