<svg width="20" height="20" viewBox="0 0 20 20" fill="none" xmlns="http://www.w3.org/2000/svg">
<path d="M3.50908 5.8335H3.53074C4.69324 5.8335 5.41699 5.00016 5.41699 3.9585C5.39532 2.89391 4.69324 2.0835 3.55283 2.0835C2.41241 2.0835 1.66699 2.89391 1.66699 3.9585C1.66699 5.00016 2.39033 5.8335 3.50908 5.8335ZM1.66699 7.0835H5.41699V17.9168H1.66699V7.0835ZM18.3337 11.0418C18.3337 8.85558 16.5616 7.0835 14.3753 7.0835C13.1032 7.0835 11.9745 7.686 11.2503 8.6185V7.0835H7.50032V17.9168H11.2503V11.6668C11.2503 10.7464 11.9966 10.0002 12.917 10.0002C13.8374 10.0002 14.5837 10.7464 14.5837 11.6668V17.9168H18.3337C18.3337 17.9168 18.3337 11.6481 18.3337 11.0418Z" fill="white" fill-opacity="0.6"/>
</svg>
