<svg width="12" height="13" viewBox="0 0 12 13" fill="none" xmlns="http://www.w3.org/2000/svg">
<path d="M10.4183 3.47623C10.7779 4.3436 10.6066 5.37898 9.90119 6.08435C9.12456 6.86098 7.95081 6.98248 7.03844 6.4676L6.37881 7.18798L6.84944 7.66048L7.13069 7.37923C7.27431 7.23523 7.50756 7.23523 7.65119 7.37923L9.93194 9.68323C10.0759 9.82685 10.0759 10.0601 9.93194 10.2037L8.89094 11.2447C8.74731 11.3887 8.51406 11.3887 8.37044 11.2447L6.08969 8.94073C5.94569 8.7971 5.94569 8.56385 6.08969 8.42023L6.34656 8.16335L5.89806 7.71373L2.74394 11.1596C2.45631 11.4472 1.99019 11.4472 1.70294 11.1596L1.44269 10.8994C1.15506 10.6117 1.15506 10.1456 1.44269 9.85835L5.03594 6.84898L2.64944 4.4561L1.89569 4.45573L1.02344 3.05323L1.72544 2.3501L3.15981 3.22798L3.16919 3.96598L5.58344 6.3896L6.28581 5.8016C5.59919 4.8656 5.67081 3.5471 6.51681 2.7011C7.21881 1.9991 8.24856 1.82473 9.11369 2.1776L7.56719 3.70273L8.86881 5.00435L10.4183 3.47623ZM2.30594 10.2255C2.16231 10.0819 1.92944 10.0819 1.78544 10.2255C1.64144 10.3695 1.64144 10.6024 1.78544 10.7464C1.92944 10.89 2.16231 10.89 2.30594 10.7464C2.44994 10.602 2.44994 10.3691 2.30594 10.2255Z" fill="white"/>
</svg>
