<svg width="20" height="20" viewBox="0 0 20 20" fill="none" xmlns="http://www.w3.org/2000/svg">
<path d="M18.7497 6.75L16.6663 7.89583L14.583 9.875V16.6667H17.4997C18.1901 16.6667 18.7497 16.1071 18.7497 15.4167V6.75Z" fill="white" fill-opacity="0.6"/>
<path d="M1.25 6.75L2.75583 7.4625L5.41667 9.875V16.6667H2.5C1.80958 16.6667 1.25 16.1071 1.25 15.4167V6.75Z" fill="white" fill-opacity="0.6"/>
<path d="M14.5833 4.6665L10 8.104L5.41667 4.6665L5 7.08317L5.41667 9.87484L10 13.3123L14.5833 9.87484L15 7.08317L14.5833 4.6665Z" fill="white" fill-opacity="0.6"/>
<path d="M1.25 5.12433V6.75016L5.41667 9.87516V4.66683L4.115 3.69141C3.805 3.45891 3.42833 3.3335 3.04083 3.3335C2.05167 3.3335 1.25 4.13516 1.25 5.12433Z" fill="white" fill-opacity="0.6"/>
<path d="M18.7497 5.12433V6.75016L14.583 9.87516V4.66683L15.8847 3.69141C16.1947 3.45891 16.5713 3.3335 16.9588 3.3335C17.948 3.3335 18.7497 4.13516 18.7497 5.12433Z" fill="white" fill-opacity="0.6"/>
</svg>
